<?xml version="1.0" encoding="UTF-8" standalone="no"?>
<!DOCTYPE svg PUBLIC "-//W3C//DTD SVG 1.1//EN"
 "http://www.w3.org/Graphics/SVG/1.1/DTD/svg11.dtd">
<!-- Generated by graphviz version 2.26.3 (20100126.1600)
 -->
<!-- Title: controllers_diagram Pages: 1 -->
<svg width="1085pt" height="928pt"
 viewBox="0.00 0.00 1085.00 928.00" xmlns="http://www.w3.org/2000/svg" xmlns:xlink="http://www.w3.org/1999/xlink">
<g id="graph1" class="graph" transform="scale(1 1) rotate(0) translate(4 924)">
<title>controllers_diagram</title>
<polygon fill="white" stroke="white" points="-4,5 -4,-924 1082,-924 1082,5 -4,5"/>
<!-- _diagram_info -->
<g id="node1" class="node"><title>_diagram_info</title>
<text text-anchor="start" x="834" y="-903.3" font-family="Times Roman,serif" font-size="13.00">Controllers diagram</text>
<text text-anchor="start" x="834" y="-886.3" font-family="Times Roman,serif" font-size="13.00">Date: May 23 2011 &#45; 22:32</text>
<text text-anchor="start" x="834" y="-869.3" font-family="Times Roman,serif" font-size="13.00">Migration version: 20110314114325</text>
<text text-anchor="start" x="834" y="-852.3" font-family="Times Roman,serif" font-size="13.00">Generated by RailRoady 1.0.2</text>
<text text-anchor="start" x="834" y="-835.3" font-family="Times Roman,serif" font-size="13.00">http://railroady.prestonlee.com</text>
</g>
<!-- ApplicationController -->
<g id="node2" class="node"><title>ApplicationController</title>
<polyline fill="none" stroke="black" points="838,-1.5 1052,-1.5 "/>
<path fill="none" stroke="black" d="M1052,-1.5C1058,-1.5 1064,-7.5 1064,-13.5"/>
<polyline fill="none" stroke="black" points="1064,-13.5 1064,-235.5 "/>
<path fill="none" stroke="black" d="M1064,-235.5C1064,-241.5 1058,-247.5 1052,-247.5"/>
<polyline fill="none" stroke="black" points="1052,-247.5 838,-247.5 "/>
<path fill="none" stroke="black" d="M838,-247.5C832,-247.5 826,-241.5 826,-235.5"/>
<polyline fill="none" stroke="black" points="826,-235.5 826,-13.5 "/>
<path fill="none" stroke="black" d="M826,-13.5C826,-7.5 832,-1.5 838,-1.5"/>
<text text-anchor="middle" x="945" y="-230.9" font-family="Times Roman,serif" font-size="14.00">ApplicationController</text>
<polyline fill="none" stroke="black" points="826,-221.5 1064,-221.5 "/>
<text text-anchor="start" x="834" y="-204.9" font-family="Times Roman,serif" font-size="14.00">_one_time_conditions_valid_52?</text>
<text text-anchor="start" x="834" y="-186.9" font-family="Times Roman,serif" font-size="14.00">_one_time_conditions_valid_54?</text>
<text text-anchor="start" x="834" y="-168.9" font-family="Times Roman,serif" font-size="14.00">admin?</text>
<text text-anchor="start" x="834" y="-150.9" font-family="Times Roman,serif" font-size="14.00">after_sign_in_path_for</text>
<text text-anchor="start" x="834" y="-132.9" font-family="Times Roman,serif" font-size="14.00">check_authorization</text>
<text text-anchor="start" x="834" y="-114.9" font-family="Times Roman,serif" font-size="14.00">generate_cookie</text>
<text text-anchor="start" x="834" y="-96.9" font-family="Times Roman,serif" font-size="14.00">granted_actions</text>
<text text-anchor="start" x="834" y="-78.9" font-family="Times Roman,serif" font-size="14.00">has_access?</text>
<polyline fill="none" stroke="black" points="826,-69.5 1064,-69.5 "/>
<polyline fill="none" stroke="black" points="826,-45.5 1064,-45.5 "/>
<text text-anchor="start" x="834" y="-28.9" font-family="Times Roman,serif" font-size="14.00">_layout</text>
<text text-anchor="start" x="834" y="-10.9" font-family="Times Roman,serif" font-size="14.00">_run_process_action_callbacks</text>
</g>
<!-- DashboardController -->
<g id="node3" class="node"><title>DashboardController</title>
<polyline fill="none" stroke="black" points="838,-301.5 1052,-301.5 "/>
<path fill="none" stroke="black" d="M1052,-301.5C1058,-301.5 1064,-307.5 1064,-313.5"/>
<polyline fill="none" stroke="black" points="1064,-313.5 1064,-427.5 "/>
<path fill="none" stroke="black" d="M1064,-427.5C1064,-433.5 1058,-439.5 1052,-439.5"/>
<polyline fill="none" stroke="black" points="1052,-439.5 838,-439.5 "/>
<path fill="none" stroke="black" d="M838,-439.5C832,-439.5 826,-433.5 826,-427.5"/>
<polyline fill="none" stroke="black" points="826,-427.5 826,-313.5 "/>
<path fill="none" stroke="black" d="M826,-313.5C826,-307.5 832,-301.5 838,-301.5"/>
<text text-anchor="middle" x="945" y="-422.9" font-family="Times Roman,serif" font-size="14.00">DashboardController</text>
<polyline fill="none" stroke="black" points="826,-413.5 1064,-413.5 "/>
<text text-anchor="start" x="834" y="-396.9" font-family="Times Roman,serif" font-size="14.00">_one_time_conditions_valid_56?</text>
<text text-anchor="start" x="834" y="-378.9" font-family="Times Roman,serif" font-size="14.00">index</text>
<polyline fill="none" stroke="black" points="826,-369.5 1064,-369.5 "/>
<polyline fill="none" stroke="black" points="826,-345.5 1064,-345.5 "/>
<text text-anchor="start" x="834" y="-328.9" font-family="Times Roman,serif" font-size="14.00">_layout</text>
<text text-anchor="start" x="834" y="-310.9" font-family="Times Roman,serif" font-size="14.00">_run_process_action_callbacks</text>
</g>
<!-- HomeController -->
<g id="node4" class="node"><title>HomeController</title>
<polyline fill="none" stroke="black" points="88,-751.5 195,-751.5 "/>
<path fill="none" stroke="black" d="M195,-751.5C201,-751.5 207,-757.5 207,-763.5"/>
<polyline fill="none" stroke="black" points="207,-763.5 207,-859.5 "/>
<path fill="none" stroke="black" d="M207,-859.5C207,-865.5 201,-871.5 195,-871.5"/>
<polyline fill="none" stroke="black" points="195,-871.5 88,-871.5 "/>
<path fill="none" stroke="black" d="M88,-871.5C82,-871.5 76,-865.5 76,-859.5"/>
<polyline fill="none" stroke="black" points="76,-859.5 76,-763.5 "/>
<path fill="none" stroke="black" d="M76,-763.5C76,-757.5 82,-751.5 88,-751.5"/>
<text text-anchor="middle" x="141.5" y="-854.9" font-family="Times Roman,serif" font-size="14.00">HomeController</text>
<polyline fill="none" stroke="black" points="76,-845.5 207,-845.5 "/>
<text text-anchor="start" x="84" y="-828.9" font-family="Times Roman,serif" font-size="14.00">action_forbidden</text>
<text text-anchor="start" x="84" y="-810.9" font-family="Times Roman,serif" font-size="14.00">index</text>
<polyline fill="none" stroke="black" points="76,-801.5 207,-801.5 "/>
<polyline fill="none" stroke="black" points="76,-777.5 207,-777.5 "/>
<text text-anchor="start" x="84" y="-760.9" font-family="Times Roman,serif" font-size="14.00">_layout</text>
</g>
<!-- Admin::AgendasController -->
<g id="node5" class="node"><title>Admin::AgendasController</title>
<polyline fill="none" stroke="black" points="838,-476.5 1052,-476.5 "/>
<path fill="none" stroke="black" d="M1052,-476.5C1058,-476.5 1064,-482.5 1064,-488.5"/>
<polyline fill="none" stroke="black" points="1064,-488.5 1064,-602.5 "/>
<path fill="none" stroke="black" d="M1064,-602.5C1064,-608.5 1058,-614.5 1052,-614.5"/>
<polyline fill="none" stroke="black" points="1052,-614.5 838,-614.5 "/>
<path fill="none" stroke="black" d="M838,-614.5C832,-614.5 826,-608.5 826,-602.5"/>
<polyline fill="none" stroke="black" points="826,-602.5 826,-488.5 "/>
<path fill="none" stroke="black" d="M826,-488.5C826,-482.5 832,-476.5 838,-476.5"/>
<text text-anchor="middle" x="945" y="-597.9" font-family="Times Roman,serif" font-size="14.00">Admin::AgendasController</text>
<polyline fill="none" stroke="black" points="826,-588.5 1064,-588.5 "/>
<text text-anchor="start" x="834" y="-571.9" font-family="Times Roman,serif" font-size="14.00">_one_time_conditions_valid_58?</text>
<text text-anchor="start" x="834" y="-553.9" font-family="Times Roman,serif" font-size="14.00">index</text>
<polyline fill="none" stroke="black" points="826,-544.5 1064,-544.5 "/>
<polyline fill="none" stroke="black" points="826,-520.5 1064,-520.5 "/>
<text text-anchor="start" x="834" y="-503.9" font-family="Times Roman,serif" font-size="14.00">_layout</text>
<text text-anchor="start" x="834" y="-485.9" font-family="Times Roman,serif" font-size="14.00">_run_process_action_callbacks</text>
</g>
<!-- Admin::NursesController -->
<g id="node6" class="node"><title>Admin::NursesController</title>
<polyline fill="none" stroke="black" points="288,-276.5 502,-276.5 "/>
<path fill="none" stroke="black" d="M502,-276.5C508,-276.5 514,-282.5 514,-288.5"/>
<polyline fill="none" stroke="black" points="514,-288.5 514,-528.5 "/>
<path fill="none" stroke="black" d="M514,-528.5C514,-534.5 508,-540.5 502,-540.5"/>
<polyline fill="none" stroke="black" points="502,-540.5 288,-540.5 "/>
<path fill="none" stroke="black" d="M288,-540.5C282,-540.5 276,-534.5 276,-528.5"/>
<polyline fill="none" stroke="black" points="276,-528.5 276,-288.5 "/>
<path fill="none" stroke="black" d="M276,-288.5C276,-282.5 282,-276.5 288,-276.5"/>
<text text-anchor="middle" x="395" y="-523.9" font-family="Times Roman,serif" font-size="14.00">Admin::NursesController</text>
<polyline fill="none" stroke="black" points="276,-514.5 514,-514.5 "/>
<text text-anchor="start" x="284" y="-497.9" font-family="Times Roman,serif" font-size="14.00">_one_time_conditions_valid_60?</text>
<text text-anchor="start" x="284" y="-479.9" font-family="Times Roman,serif" font-size="14.00">create</text>
<text text-anchor="start" x="284" y="-461.9" font-family="Times Roman,serif" font-size="14.00">destroy</text>
<text text-anchor="start" x="284" y="-443.9" font-family="Times Roman,serif" font-size="14.00">edit</text>
<text text-anchor="start" x="284" y="-425.9" font-family="Times Roman,serif" font-size="14.00">enable</text>
<text text-anchor="start" x="284" y="-407.9" font-family="Times Roman,serif" font-size="14.00">index</text>
<text text-anchor="start" x="284" y="-389.9" font-family="Times Roman,serif" font-size="14.00">new</text>
<text text-anchor="start" x="284" y="-371.9" font-family="Times Roman,serif" font-size="14.00">show</text>
<text text-anchor="start" x="284" y="-353.9" font-family="Times Roman,serif" font-size="14.00">update</text>
<polyline fill="none" stroke="black" points="276,-344.5 514,-344.5 "/>
<polyline fill="none" stroke="black" points="276,-320.5 514,-320.5 "/>
<text text-anchor="start" x="284" y="-303.9" font-family="Times Roman,serif" font-size="14.00">_layout</text>
<text text-anchor="start" x="284" y="-285.9" font-family="Times Roman,serif" font-size="14.00">_run_process_action_callbacks</text>
</g>
<!-- Admin::DoctorsController -->
<g id="node7" class="node"><title>Admin::DoctorsController</title>
<polyline fill="none" stroke="black" points="563,-276.5 777,-276.5 "/>
<path fill="none" stroke="black" d="M777,-276.5C783,-276.5 789,-282.5 789,-288.5"/>
<polyline fill="none" stroke="black" points="789,-288.5 789,-528.5 "/>
<path fill="none" stroke="black" d="M789,-528.5C789,-534.5 783,-540.5 777,-540.5"/>
<polyline fill="none" stroke="black" points="777,-540.5 563,-540.5 "/>
<path fill="none" stroke="black" d="M563,-540.5C557,-540.5 551,-534.5 551,-528.5"/>
<polyline fill="none" stroke="black" points="551,-528.5 551,-288.5 "/>
<path fill="none" stroke="black" d="M551,-288.5C551,-282.5 557,-276.5 563,-276.5"/>
<text text-anchor="middle" x="670" y="-523.9" font-family="Times Roman,serif" font-size="14.00">Admin::DoctorsController</text>
<polyline fill="none" stroke="black" points="551,-514.5 789,-514.5 "/>
<text text-anchor="start" x="559" y="-497.9" font-family="Times Roman,serif" font-size="14.00">_one_time_conditions_valid_62?</text>
<text text-anchor="start" x="559" y="-479.9" font-family="Times Roman,serif" font-size="14.00">create</text>
<text text-anchor="start" x="559" y="-461.9" font-family="Times Roman,serif" font-size="14.00">destroy</text>
<text text-anchor="start" x="559" y="-443.9" font-family="Times Roman,serif" font-size="14.00">edit</text>
<text text-anchor="start" x="559" y="-425.9" font-family="Times Roman,serif" font-size="14.00">enable</text>
<text text-anchor="start" x="559" y="-407.9" font-family="Times Roman,serif" font-size="14.00">index</text>
<text text-anchor="start" x="559" y="-389.9" font-family="Times Roman,serif" font-size="14.00">new</text>
<text text-anchor="start" x="559" y="-371.9" font-family="Times Roman,serif" font-size="14.00">show</text>
<text text-anchor="start" x="559" y="-353.9" font-family="Times Roman,serif" font-size="14.00">update</text>
<polyline fill="none" stroke="black" points="551,-344.5 789,-344.5 "/>
<polyline fill="none" stroke="black" points="551,-320.5 789,-320.5 "/>
<text text-anchor="start" x="559" y="-303.9" font-family="Times Roman,serif" font-size="14.00">_layout</text>
<text text-anchor="start" x="559" y="-285.9" font-family="Times Roman,serif" font-size="14.00">_run_process_action_callbacks</text>
</g>
<!-- Admin::ConsultationsController -->
<g id="node8" class="node"><title>Admin::ConsultationsController</title>
<polyline fill="none" stroke="black" points="38,-51.5 252,-51.5 "/>
<path fill="none" stroke="black" d="M252,-51.5C258,-51.5 264,-57.5 264,-63.5"/>
<polyline fill="none" stroke="black" points="264,-63.5 264,-213.5 "/>
<path fill="none" stroke="black" d="M264,-213.5C264,-219.5 258,-225.5 252,-225.5"/>
<polyline fill="none" stroke="black" points="252,-225.5 38,-225.5 "/>
<path fill="none" stroke="black" d="M38,-225.5C32,-225.5 26,-219.5 26,-213.5"/>
<polyline fill="none" stroke="black" points="26,-213.5 26,-63.5 "/>
<path fill="none" stroke="black" d="M26,-63.5C26,-57.5 32,-51.5 38,-51.5"/>
<text text-anchor="middle" x="145" y="-208.9" font-family="Times Roman,serif" font-size="14.00">Admin::ConsultationsController</text>
<polyline fill="none" stroke="black" points="26,-199.5 264,-199.5 "/>
<text text-anchor="start" x="34" y="-182.9" font-family="Times Roman,serif" font-size="14.00">_one_time_conditions_valid_64?</text>
<text text-anchor="start" x="34" y="-164.9" font-family="Times Roman,serif" font-size="14.00">index</text>
<text text-anchor="start" x="34" y="-146.9" font-family="Times Roman,serif" font-size="14.00">new</text>
<polyline fill="none" stroke="black" points="26,-137.5 264,-137.5 "/>
<polyline fill="none" stroke="black" points="26,-113.5 264,-113.5 "/>
<text text-anchor="start" x="34" y="-96.9" font-family="Times Roman,serif" font-size="14.00">_layout</text>
<text text-anchor="start" x="34" y="-78.9" font-family="Times Roman,serif" font-size="14.00">_run_process_action_callbacks</text>
<text text-anchor="start" x="34" y="-60.9" font-family="Times Roman,serif" font-size="14.00">select_patient</text>
</g>
<!-- Admin::PatientsController -->
<g id="node9" class="node"><title>Admin::PatientsController</title>
<polyline fill="none" stroke="black" points="563,-576.5 777,-576.5 "/>
<path fill="none" stroke="black" d="M777,-576.5C783,-576.5 789,-582.5 789,-588.5"/>
<polyline fill="none" stroke="black" points="789,-588.5 789,-828.5 "/>
<path fill="none" stroke="black" d="M789,-828.5C789,-834.5 783,-840.5 777,-840.5"/>
<polyline fill="none" stroke="black" points="777,-840.5 563,-840.5 "/>
<path fill="none" stroke="black" d="M563,-840.5C557,-840.5 551,-834.5 551,-828.5"/>
<polyline fill="none" stroke="black" points="551,-828.5 551,-588.5 "/>
<path fill="none" stroke="black" d="M551,-588.5C551,-582.5 557,-576.5 563,-576.5"/>
<text text-anchor="middle" x="670" y="-823.9" font-family="Times Roman,serif" font-size="14.00">Admin::PatientsController</text>
<polyline fill="none" stroke="black" points="551,-814.5 789,-814.5 "/>
<text text-anchor="start" x="559" y="-797.9" font-family="Times Roman,serif" font-size="14.00">_one_time_conditions_valid_66?</text>
<text text-anchor="start" x="559" y="-779.9" font-family="Times Roman,serif" font-size="14.00">create</text>
<text text-anchor="start" x="559" y="-761.9" font-family="Times Roman,serif" font-size="14.00">destroy</text>
<text text-anchor="start" x="559" y="-743.9" font-family="Times Roman,serif" font-size="14.00">edit</text>
<text text-anchor="start" x="559" y="-725.9" font-family="Times Roman,serif" font-size="14.00">enable</text>
<text text-anchor="start" x="559" y="-707.9" font-family="Times Roman,serif" font-size="14.00">index</text>
<text text-anchor="start" x="559" y="-689.9" font-family="Times Roman,serif" font-size="14.00">new</text>
<text text-anchor="start" x="559" y="-671.9" font-family="Times Roman,serif" font-size="14.00">show</text>
<text text-anchor="start" x="559" y="-653.9" font-family="Times Roman,serif" font-size="14.00">update</text>
<polyline fill="none" stroke="black" points="551,-644.5 789,-644.5 "/>
<polyline fill="none" stroke="black" points="551,-620.5 789,-620.5 "/>
<text text-anchor="start" x="559" y="-603.9" font-family="Times Roman,serif" font-size="14.00">_layout</text>
<text text-anchor="start" x="559" y="-585.9" font-family="Times Roman,serif" font-size="14.00">_run_process_action_callbacks</text>
</g>
<!-- Admin::AccountsController -->
<g id="node10" class="node"><title>Admin::AccountsController</title>
<polyline fill="none" stroke="black" points="413,-26.5 627,-26.5 "/>
<path fill="none" stroke="black" d="M627,-26.5C633,-26.5 639,-32.5 639,-38.5"/>
<polyline fill="none" stroke="black" points="639,-38.5 639,-206.5 "/>
<path fill="none" stroke="black" d="M639,-206.5C639,-212.5 633,-218.5 627,-218.5"/>
<polyline fill="none" stroke="black" points="627,-218.5 413,-218.5 "/>
<path fill="none" stroke="black" d="M413,-218.5C407,-218.5 401,-212.5 401,-206.5"/>
<polyline fill="none" stroke="black" points="401,-206.5 401,-38.5 "/>
<path fill="none" stroke="black" d="M401,-38.5C401,-32.5 407,-26.5 413,-26.5"/>
<text text-anchor="middle" x="520" y="-201.9" font-family="Times Roman,serif" font-size="14.00">Admin::AccountsController</text>
<polyline fill="none" stroke="black" points="401,-192.5 639,-192.5 "/>
<text text-anchor="start" x="409" y="-175.9" font-family="Times Roman,serif" font-size="14.00">_one_time_conditions_valid_68?</text>
<text text-anchor="start" x="409" y="-157.9" font-family="Times Roman,serif" font-size="14.00">edit</text>
<text text-anchor="start" x="409" y="-139.9" font-family="Times Roman,serif" font-size="14.00">edit_user</text>
<text text-anchor="start" x="409" y="-121.9" font-family="Times Roman,serif" font-size="14.00">show</text>
<text text-anchor="start" x="409" y="-103.9" font-family="Times Roman,serif" font-size="14.00">update</text>
<polyline fill="none" stroke="black" points="401,-94.5 639,-94.5 "/>
<polyline fill="none" stroke="black" points="401,-70.5 639,-70.5 "/>
<text text-anchor="start" x="409" y="-53.9" font-family="Times Roman,serif" font-size="14.00">_layout</text>
<text text-anchor="start" x="409" y="-35.9" font-family="Times Roman,serif" font-size="14.00">_run_process_action_callbacks</text>
</g>
<!-- Admin::ServantsController -->
<g id="node11" class="node"><title>Admin::ServantsController</title>
<polyline fill="none" stroke="black" points="838,-651.5 1052,-651.5 "/>
<path fill="none" stroke="black" d="M1052,-651.5C1058,-651.5 1064,-657.5 1064,-663.5"/>
<polyline fill="none" stroke="black" points="1064,-663.5 1064,-777.5 "/>
<path fill="none" stroke="black" d="M1064,-777.5C1064,-783.5 1058,-789.5 1052,-789.5"/>
<polyline fill="none" stroke="black" points="1052,-789.5 838,-789.5 "/>
<path fill="none" stroke="black" d="M838,-789.5C832,-789.5 826,-783.5 826,-777.5"/>
<polyline fill="none" stroke="black" points="826,-777.5 826,-663.5 "/>
<path fill="none" stroke="black" d="M826,-663.5C826,-657.5 832,-651.5 838,-651.5"/>
<text text-anchor="middle" x="945" y="-772.9" font-family="Times Roman,serif" font-size="14.00">Admin::ServantsController</text>
<polyline fill="none" stroke="black" points="826,-763.5 1064,-763.5 "/>
<text text-anchor="start" x="834" y="-746.9" font-family="Times Roman,serif" font-size="14.00">_one_time_conditions_valid_70?</text>
<text text-anchor="start" x="834" y="-728.9" font-family="Times Roman,serif" font-size="14.00">index</text>
<polyline fill="none" stroke="black" points="826,-719.5 1064,-719.5 "/>
<polyline fill="none" stroke="black" points="826,-695.5 1064,-695.5 "/>
<text text-anchor="start" x="834" y="-678.9" font-family="Times Roman,serif" font-size="14.00">_layout</text>
<text text-anchor="start" x="834" y="-660.9" font-family="Times Roman,serif" font-size="14.00">_run_process_action_callbacks</text>
</g>
<!-- Admin::AdministrativesController -->
<g id="node12" class="node"><title>Admin::AdministrativesController</title>
<polyline fill="none" stroke="black" points="263,-576.5 484,-576.5 "/>
<path fill="none" stroke="black" d="M484,-576.5C490,-576.5 496,-582.5 496,-588.5"/>
<polyline fill="none" stroke="black" points="496,-588.5 496,-828.5 "/>
<path fill="none" stroke="black" d="M496,-828.5C496,-834.5 490,-840.5 484,-840.5"/>
<polyline fill="none" stroke="black" points="484,-840.5 263,-840.5 "/>
<path fill="none" stroke="black" d="M263,-840.5C257,-840.5 251,-834.5 251,-828.5"/>
<polyline fill="none" stroke="black" points="251,-828.5 251,-588.5 "/>
<path fill="none" stroke="black" d="M251,-588.5C251,-582.5 257,-576.5 263,-576.5"/>
<text text-anchor="middle" x="373.5" y="-823.9" font-family="Times Roman,serif" font-size="14.00">Admin::AdministrativesController</text>
<polyline fill="none" stroke="black" points="251,-814.5 496,-814.5 "/>
<text text-anchor="start" x="259" y="-797.9" font-family="Times Roman,serif" font-size="14.00">_one_time_conditions_valid_72?</text>
<text text-anchor="start" x="259" y="-779.9" font-family="Times Roman,serif" font-size="14.00">create</text>
<text text-anchor="start" x="259" y="-761.9" font-family="Times Roman,serif" font-size="14.00">destroy</text>
<text text-anchor="start" x="259" y="-743.9" font-family="Times Roman,serif" font-size="14.00">edit</text>
<text text-anchor="start" x="259" y="-725.9" font-family="Times Roman,serif" font-size="14.00">enable</text>
<text text-anchor="start" x="259" y="-707.9" font-family="Times Roman,serif" font-size="14.00">index</text>
<text text-anchor="start" x="259" y="-689.9" font-family="Times Roman,serif" font-size="14.00">new</text>
<text text-anchor="start" x="259" y="-671.9" font-family="Times Roman,serif" font-size="14.00">show</text>
<text text-anchor="start" x="259" y="-653.9" font-family="Times Roman,serif" font-size="14.00">update</text>
<polyline fill="none" stroke="black" points="251,-644.5 496,-644.5 "/>
<polyline fill="none" stroke="black" points="251,-620.5 496,-620.5 "/>
<text text-anchor="start" x="259" y="-603.9" font-family="Times Roman,serif" font-size="14.00">_layout</text>
<text text-anchor="start" x="259" y="-585.9" font-family="Times Roman,serif" font-size="14.00">_run_process_action_callbacks</text>
</g>
<!-- Admin::UsersController -->
<g id="node13" class="node"><title>Admin::UsersController</title>
<polyline fill="none" stroke="black" points="13,-276.5 227,-276.5 "/>
<path fill="none" stroke="black" d="M227,-276.5C233,-276.5 239,-282.5 239,-288.5"/>
<polyline fill="none" stroke="black" points="239,-288.5 239,-528.5 "/>
<path fill="none" stroke="black" d="M239,-528.5C239,-534.5 233,-540.5 227,-540.5"/>
<polyline fill="none" stroke="black" points="227,-540.5 13,-540.5 "/>
<path fill="none" stroke="black" d="M13,-540.5C7,-540.5 1,-534.5 1,-528.5"/>
<polyline fill="none" stroke="black" points="1,-528.5 1,-288.5 "/>
<path fill="none" stroke="black" d="M1,-288.5C1,-282.5 7,-276.5 13,-276.5"/>
<text text-anchor="middle" x="120" y="-523.9" font-family="Times Roman,serif" font-size="14.00">Admin::UsersController</text>
<polyline fill="none" stroke="black" points="1,-514.5 239,-514.5 "/>
<text text-anchor="start" x="9" y="-497.9" font-family="Times Roman,serif" font-size="14.00">_one_time_conditions_valid_74?</text>
<text text-anchor="start" x="9" y="-479.9" font-family="Times Roman,serif" font-size="14.00">create</text>
<text text-anchor="start" x="9" y="-461.9" font-family="Times Roman,serif" font-size="14.00">destroy</text>
<text text-anchor="start" x="9" y="-443.9" font-family="Times Roman,serif" font-size="14.00">edit</text>
<text text-anchor="start" x="9" y="-425.9" font-family="Times Roman,serif" font-size="14.00">enable</text>
<text text-anchor="start" x="9" y="-407.9" font-family="Times Roman,serif" font-size="14.00">index</text>
<text text-anchor="start" x="9" y="-389.9" font-family="Times Roman,serif" font-size="14.00">new</text>
<text text-anchor="start" x="9" y="-371.9" font-family="Times Roman,serif" font-size="14.00">show</text>
<text text-anchor="start" x="9" y="-353.9" font-family="Times Roman,serif" font-size="14.00">update</text>
<polyline fill="none" stroke="black" points="1,-344.5 239,-344.5 "/>
<polyline fill="none" stroke="black" points="1,-320.5 239,-320.5 "/>
<text text-anchor="start" x="9" y="-303.9" font-family="Times Roman,serif" font-size="14.00">_layout</text>
<text text-anchor="start" x="9" y="-285.9" font-family="Times Roman,serif" font-size="14.00">_run_process_action_callbacks</text>
</g>
</g>
</svg>
