<?xml version="1.0" encoding="UTF-8" standalone="no"?>
<!DOCTYPE svg PUBLIC "-//W3C//DTD SVG 1.1//EN"
 "http://www.w3.org/Graphics/SVG/1.1/DTD/svg11.dtd">
<!-- Generated by graphviz version 2.26.3 (20100126.1600)
 -->
<!-- Title: models_diagram Pages: 1 -->
<svg width="1114pt" height="1664pt"
 viewBox="0.00 0.00 1114.00 1664.00" xmlns="http://www.w3.org/2000/svg" xmlns:xlink="http://www.w3.org/1999/xlink">
<g id="graph1" class="graph" transform="scale(1 1) rotate(0) translate(4 1660)">
<title>models_diagram</title>
<polygon fill="white" stroke="white" points="-4,5 -4,-1660 1111,-1660 1111,5 -4,5"/>
<!-- _diagram_info -->
<g id="node1" class="node"><title>_diagram_info</title>
<text text-anchor="start" x="8" y="-1623.8" font-family="Times Roman,serif" font-size="13.00">Models diagram</text>
<text text-anchor="start" x="8" y="-1606.8" font-family="Times Roman,serif" font-size="13.00">Date: May 23 2011 &#45; 22:26</text>
<text text-anchor="start" x="8" y="-1589.8" font-family="Times Roman,serif" font-size="13.00">Migration version: 20110314114325</text>
<text text-anchor="start" x="8" y="-1572.8" font-family="Times Roman,serif" font-size="13.00">Generated by RailRoady 1.0.2</text>
<text text-anchor="start" x="8" y="-1555.8" font-family="Times Roman,serif" font-size="13.00">http://railroady.prestonlee.com</text>
</g>
<!-- State -->
<g id="node2" class="node"><title>State</title>
<polyline fill="none" stroke="black" points="728.5,-1540 869.5,-1540 "/>
<path fill="none" stroke="black" d="M869.5,-1540C875.5,-1540 881.5,-1546 881.5,-1552"/>
<polyline fill="none" stroke="black" points="881.5,-1552 881.5,-1634 "/>
<path fill="none" stroke="black" d="M881.5,-1634C881.5,-1640 875.5,-1646 869.5,-1646"/>
<polyline fill="none" stroke="black" points="869.5,-1646 728.5,-1646 "/>
<path fill="none" stroke="black" d="M728.5,-1646C722.5,-1646 716.5,-1640 716.5,-1634"/>
<polyline fill="none" stroke="black" points="716.5,-1634 716.5,-1552 "/>
<path fill="none" stroke="black" d="M716.5,-1552C716.5,-1546 722.5,-1540 728.5,-1540"/>
<text text-anchor="middle" x="799" y="-1629.4" font-family="Times Roman,serif" font-size="14.00">State</text>
<polyline fill="none" stroke="black" points="716.5,-1620 881.5,-1620 "/>
<text text-anchor="start" x="724.5" y="-1603.4" font-family="Times Roman,serif" font-size="14.00">name :string</text>
<text text-anchor="start" x="724.5" y="-1585.4" font-family="Times Roman,serif" font-size="14.00">acronym :string</text>
<text text-anchor="start" x="724.5" y="-1567.4" font-family="Times Roman,serif" font-size="14.00">created_at :datetime</text>
<text text-anchor="start" x="724.5" y="-1549.4" font-family="Times Roman,serif" font-size="14.00">updated_at :datetime</text>
</g>
<!-- Patient -->
<g id="node13" class="node"><title>Patient</title>
<polyline fill="none" stroke="black" points="581.5,-1153 722.5,-1153 "/>
<path fill="none" stroke="black" d="M722.5,-1153C728.5,-1153 734.5,-1159 734.5,-1165"/>
<polyline fill="none" stroke="black" points="734.5,-1165 734.5,-1481 "/>
<path fill="none" stroke="black" d="M734.5,-1481C734.5,-1487 728.5,-1493 722.5,-1493"/>
<polyline fill="none" stroke="black" points="722.5,-1493 581.5,-1493 "/>
<path fill="none" stroke="black" d="M581.5,-1493C575.5,-1493 569.5,-1487 569.5,-1481"/>
<polyline fill="none" stroke="black" points="569.5,-1481 569.5,-1165 "/>
<path fill="none" stroke="black" d="M569.5,-1165C569.5,-1159 575.5,-1153 581.5,-1153"/>
<text text-anchor="middle" x="652" y="-1476.4" font-family="Times Roman,serif" font-size="14.00">Patient</text>
<polyline fill="none" stroke="black" points="569.5,-1467 734.5,-1467 "/>
<text text-anchor="start" x="577.5" y="-1450.4" font-family="Times Roman,serif" font-size="14.00">name :string</text>
<text text-anchor="start" x="577.5" y="-1432.4" font-family="Times Roman,serif" font-size="14.00">birth :date</text>
<text text-anchor="start" x="577.5" y="-1414.4" font-family="Times Roman,serif" font-size="14.00">sex :string</text>
<text text-anchor="start" x="577.5" y="-1396.4" font-family="Times Roman,serif" font-size="14.00">cpf :string</text>
<text text-anchor="start" x="577.5" y="-1378.4" font-family="Times Roman,serif" font-size="14.00">email :string</text>
<text text-anchor="start" x="577.5" y="-1360.4" font-family="Times Roman,serif" font-size="14.00">address :string</text>
<text text-anchor="start" x="577.5" y="-1342.4" font-family="Times Roman,serif" font-size="14.00">number :string</text>
<text text-anchor="start" x="577.5" y="-1324.4" font-family="Times Roman,serif" font-size="14.00">complement :string</text>
<text text-anchor="start" x="577.5" y="-1306.4" font-family="Times Roman,serif" font-size="14.00">zip_code :string</text>
<text text-anchor="start" x="577.5" y="-1288.4" font-family="Times Roman,serif" font-size="14.00">district :string</text>
<text text-anchor="start" x="577.5" y="-1270.4" font-family="Times Roman,serif" font-size="14.00">city :string</text>
<text text-anchor="start" x="577.5" y="-1252.4" font-family="Times Roman,serif" font-size="14.00">area_code :string</text>
<text text-anchor="start" x="577.5" y="-1234.4" font-family="Times Roman,serif" font-size="14.00">telephone :string</text>
<text text-anchor="start" x="577.5" y="-1216.4" font-family="Times Roman,serif" font-size="14.00">mobile :string</text>
<text text-anchor="start" x="577.5" y="-1198.4" font-family="Times Roman,serif" font-size="14.00">enabled :boolean</text>
<text text-anchor="start" x="577.5" y="-1180.4" font-family="Times Roman,serif" font-size="14.00">created_at :datetime</text>
<text text-anchor="start" x="577.5" y="-1162.4" font-family="Times Roman,serif" font-size="14.00">updated_at :datetime</text>
</g>
<!-- State&#45;&gt;Patient -->
<g id="edge2" class="edge"><title>State&#45;&gt;Patient</title>
<path fill="none" stroke="black" d="M766.126,-1532.62C757.995,-1517.69 748.898,-1500.98 739.482,-1483.68"/>
<ellipse fill="none" stroke="black" cx="768.22" cy="-1536.47" rx="4.00002" ry="4.00002"/>
<polygon fill="black" stroke="black" points="739.315,-1483.37 738.485,-1472.44 736.924,-1478.98 734.533,-1474.59 734.533,-1474.59 734.533,-1474.59 736.924,-1478.98 730.581,-1476.74 739.315,-1483.37 739.315,-1483.37"/>
</g>
<!-- Servant -->
<g id="node14" class="node"><title>Servant</title>
<polyline fill="none" stroke="black" points="589.5,-397 730.5,-397 "/>
<path fill="none" stroke="black" d="M730.5,-397C736.5,-397 742.5,-403 742.5,-409"/>
<polyline fill="none" stroke="black" points="742.5,-409 742.5,-743 "/>
<path fill="none" stroke="black" d="M742.5,-743C742.5,-749 736.5,-755 730.5,-755"/>
<polyline fill="none" stroke="black" points="730.5,-755 589.5,-755 "/>
<path fill="none" stroke="black" d="M589.5,-755C583.5,-755 577.5,-749 577.5,-743"/>
<polyline fill="none" stroke="black" points="577.5,-743 577.5,-409 "/>
<path fill="none" stroke="black" d="M577.5,-409C577.5,-403 583.5,-397 589.5,-397"/>
<text text-anchor="middle" x="660" y="-738.4" font-family="Times Roman,serif" font-size="14.00">Servant</text>
<polyline fill="none" stroke="black" points="577.5,-729 742.5,-729 "/>
<text text-anchor="start" x="585.5" y="-712.4" font-family="Times Roman,serif" font-size="14.00">name :string</text>
<text text-anchor="start" x="585.5" y="-694.4" font-family="Times Roman,serif" font-size="14.00">birth :date</text>
<text text-anchor="start" x="585.5" y="-676.4" font-family="Times Roman,serif" font-size="14.00">sex :string</text>
<text text-anchor="start" x="585.5" y="-658.4" font-family="Times Roman,serif" font-size="14.00">cpf :string</text>
<text text-anchor="start" x="585.5" y="-640.4" font-family="Times Roman,serif" font-size="14.00">email :string</text>
<text text-anchor="start" x="585.5" y="-622.4" font-family="Times Roman,serif" font-size="14.00">address :string</text>
<text text-anchor="start" x="585.5" y="-604.4" font-family="Times Roman,serif" font-size="14.00">number :string</text>
<text text-anchor="start" x="585.5" y="-586.4" font-family="Times Roman,serif" font-size="14.00">complement :string</text>
<text text-anchor="start" x="585.5" y="-568.4" font-family="Times Roman,serif" font-size="14.00">zip_code :string</text>
<text text-anchor="start" x="585.5" y="-550.4" font-family="Times Roman,serif" font-size="14.00">district :string</text>
<text text-anchor="start" x="585.5" y="-532.4" font-family="Times Roman,serif" font-size="14.00">city :string</text>
<text text-anchor="start" x="585.5" y="-514.4" font-family="Times Roman,serif" font-size="14.00">area_code :string</text>
<text text-anchor="start" x="585.5" y="-496.4" font-family="Times Roman,serif" font-size="14.00">telephone :string</text>
<text text-anchor="start" x="585.5" y="-478.4" font-family="Times Roman,serif" font-size="14.00">mobile :string</text>
<text text-anchor="start" x="585.5" y="-460.4" font-family="Times Roman,serif" font-size="14.00">enabled :boolean</text>
<text text-anchor="start" x="585.5" y="-442.4" font-family="Times Roman,serif" font-size="14.00">created_at :datetime</text>
<text text-anchor="start" x="585.5" y="-424.4" font-family="Times Roman,serif" font-size="14.00">updated_at :datetime</text>
<text text-anchor="start" x="585.5" y="-406.4" font-family="Times Roman,serif" font-size="14.00">crm :string</text>
</g>
<!-- State&#45;&gt;Servant -->
<g id="edge4" class="edge"><title>State&#45;&gt;Servant</title>
<path fill="none" stroke="black" d="M810.345,-1531.63C833.119,-1395.23 875.885,-1057.95 798,-792 787.352,-755.639 768.522,-719.572 748.13,-687.625"/>
<ellipse fill="none" stroke="black" cx="809.675" cy="-1535.59" rx="4.00001" ry="4.00001"/>
<polygon fill="black" stroke="black" points="748.08,-687.548 746.404,-676.71 745.355,-683.355 742.631,-679.162 742.631,-679.162 742.631,-679.162 745.355,-683.355 738.858,-681.614 748.08,-687.548 748.08,-687.548"/>
</g>
<!-- Specification -->
<g id="node3" class="node"><title>Specification</title>
<polyline fill="none" stroke="black" points="953.5,-523 1094.5,-523 "/>
<path fill="none" stroke="black" d="M1094.5,-523C1100.5,-523 1106.5,-529 1106.5,-535"/>
<polyline fill="none" stroke="black" points="1106.5,-535 1106.5,-617 "/>
<path fill="none" stroke="black" d="M1106.5,-617C1106.5,-623 1100.5,-629 1094.5,-629"/>
<polyline fill="none" stroke="black" points="1094.5,-629 953.5,-629 "/>
<path fill="none" stroke="black" d="M953.5,-629C947.5,-629 941.5,-623 941.5,-617"/>
<polyline fill="none" stroke="black" points="941.5,-617 941.5,-535 "/>
<path fill="none" stroke="black" d="M941.5,-535C941.5,-529 947.5,-523 953.5,-523"/>
<text text-anchor="middle" x="1024" y="-612.4" font-family="Times Roman,serif" font-size="14.00">Specification</text>
<polyline fill="none" stroke="black" points="941.5,-603 1106.5,-603 "/>
<text text-anchor="start" x="949.5" y="-586.4" font-family="Times Roman,serif" font-size="14.00">name :string</text>
<text text-anchor="start" x="949.5" y="-568.4" font-family="Times Roman,serif" font-size="14.00">enabled :boolean</text>
<text text-anchor="start" x="949.5" y="-550.4" font-family="Times Roman,serif" font-size="14.00">created_at :datetime</text>
<text text-anchor="start" x="949.5" y="-532.4" font-family="Times Roman,serif" font-size="14.00">updated_at :datetime</text>
</g>
<!-- Nurse -->
<g id="node12" class="node"><title>Nurse</title>
<polyline fill="none" stroke="black" points="953.5,-1 1094.5,-1 "/>
<path fill="none" stroke="black" d="M1094.5,-1C1100.5,-1 1106.5,-7 1106.5,-13"/>
<polyline fill="none" stroke="black" points="1106.5,-13 1106.5,-347 "/>
<path fill="none" stroke="black" d="M1106.5,-347C1106.5,-353 1100.5,-359 1094.5,-359"/>
<polyline fill="none" stroke="black" points="1094.5,-359 953.5,-359 "/>
<path fill="none" stroke="black" d="M953.5,-359C947.5,-359 941.5,-353 941.5,-347"/>
<polyline fill="none" stroke="black" points="941.5,-347 941.5,-13 "/>
<path fill="none" stroke="black" d="M941.5,-13C941.5,-7 947.5,-1 953.5,-1"/>
<text text-anchor="middle" x="1024" y="-342.4" font-family="Times Roman,serif" font-size="14.00">Nurse</text>
<polyline fill="none" stroke="black" points="941.5,-333 1106.5,-333 "/>
<text text-anchor="start" x="949.5" y="-316.4" font-family="Times Roman,serif" font-size="14.00">name :string</text>
<text text-anchor="start" x="949.5" y="-298.4" font-family="Times Roman,serif" font-size="14.00">birth :date</text>
<text text-anchor="start" x="949.5" y="-280.4" font-family="Times Roman,serif" font-size="14.00">sex :string</text>
<text text-anchor="start" x="949.5" y="-262.4" font-family="Times Roman,serif" font-size="14.00">cpf :string</text>
<text text-anchor="start" x="949.5" y="-244.4" font-family="Times Roman,serif" font-size="14.00">email :string</text>
<text text-anchor="start" x="949.5" y="-226.4" font-family="Times Roman,serif" font-size="14.00">address :string</text>
<text text-anchor="start" x="949.5" y="-208.4" font-family="Times Roman,serif" font-size="14.00">number :string</text>
<text text-anchor="start" x="949.5" y="-190.4" font-family="Times Roman,serif" font-size="14.00">complement :string</text>
<text text-anchor="start" x="949.5" y="-172.4" font-family="Times Roman,serif" font-size="14.00">zip_code :string</text>
<text text-anchor="start" x="949.5" y="-154.4" font-family="Times Roman,serif" font-size="14.00">district :string</text>
<text text-anchor="start" x="949.5" y="-136.4" font-family="Times Roman,serif" font-size="14.00">city :string</text>
<text text-anchor="start" x="949.5" y="-118.4" font-family="Times Roman,serif" font-size="14.00">area_code :string</text>
<text text-anchor="start" x="949.5" y="-100.4" font-family="Times Roman,serif" font-size="14.00">telephone :string</text>
<text text-anchor="start" x="949.5" y="-82.4" font-family="Times Roman,serif" font-size="14.00">mobile :string</text>
<text text-anchor="start" x="949.5" y="-64.4" font-family="Times Roman,serif" font-size="14.00">enabled :boolean</text>
<text text-anchor="start" x="949.5" y="-46.4" font-family="Times Roman,serif" font-size="14.00">created_at :datetime</text>
<text text-anchor="start" x="949.5" y="-28.4" font-family="Times Roman,serif" font-size="14.00">updated_at :datetime</text>
<text text-anchor="start" x="949.5" y="-10.4" font-family="Times Roman,serif" font-size="14.00">crm :string</text>
</g>
<!-- Specification&#45;&gt;Nurse -->
<g id="edge6" class="edge"><title>Specification&#45;&gt;Nurse</title>
<path fill="none" stroke="black" d="M1024,-512.593C1024,-473.484 1024,-421.072 1024,-369.438"/>
<polygon fill="black" stroke="black" points="1024,-512.594 1019.5,-522.594 1024,-517.594 1024,-522.594 1024,-522.594 1024,-522.594 1024,-517.594 1028.5,-522.594 1024,-512.594 1024,-512.594"/>
<polygon fill="black" stroke="black" points="1024,-369.125 1028.5,-359.125 1024,-364.125 1024,-359.125 1024,-359.125 1024,-359.125 1024,-364.125 1019.5,-359.125 1024,-369.125 1024,-369.125"/>
</g>
<!-- Permission -->
<g id="node4" class="node"><title>Permission</title>
<polyline fill="none" stroke="black" points="910.5,-1531 1051.5,-1531 "/>
<path fill="none" stroke="black" d="M1051.5,-1531C1057.5,-1531 1063.5,-1537 1063.5,-1543"/>
<polyline fill="none" stroke="black" points="1063.5,-1543 1063.5,-1643 "/>
<path fill="none" stroke="black" d="M1063.5,-1643C1063.5,-1649 1057.5,-1655 1051.5,-1655"/>
<polyline fill="none" stroke="black" points="1051.5,-1655 910.5,-1655 "/>
<path fill="none" stroke="black" d="M910.5,-1655C904.5,-1655 898.5,-1649 898.5,-1643"/>
<polyline fill="none" stroke="black" points="898.5,-1643 898.5,-1543 "/>
<path fill="none" stroke="black" d="M898.5,-1543C898.5,-1537 904.5,-1531 910.5,-1531"/>
<text text-anchor="middle" x="981" y="-1638.4" font-family="Times Roman,serif" font-size="14.00">Permission</text>
<polyline fill="none" stroke="black" points="898.5,-1629 1063.5,-1629 "/>
<text text-anchor="start" x="906.5" y="-1612.4" font-family="Times Roman,serif" font-size="14.00">controller :string</text>
<text text-anchor="start" x="906.5" y="-1594.4" font-family="Times Roman,serif" font-size="14.00">action :string</text>
<text text-anchor="start" x="906.5" y="-1576.4" font-family="Times Roman,serif" font-size="14.00">enabled :boolean</text>
<text text-anchor="start" x="906.5" y="-1558.4" font-family="Times Roman,serif" font-size="14.00">created_at :datetime</text>
<text text-anchor="start" x="906.5" y="-1540.4" font-family="Times Roman,serif" font-size="14.00">updated_at :datetime</text>
</g>
<!-- Role -->
<g id="node9" class="node"><title>Role</title>
<polyline fill="none" stroke="black" points="892.5,-1261 1033.5,-1261 "/>
<path fill="none" stroke="black" d="M1033.5,-1261C1039.5,-1261 1045.5,-1267 1045.5,-1273"/>
<polyline fill="none" stroke="black" points="1045.5,-1273 1045.5,-1373 "/>
<path fill="none" stroke="black" d="M1045.5,-1373C1045.5,-1379 1039.5,-1385 1033.5,-1385"/>
<polyline fill="none" stroke="black" points="1033.5,-1385 892.5,-1385 "/>
<path fill="none" stroke="black" d="M892.5,-1385C886.5,-1385 880.5,-1379 880.5,-1373"/>
<polyline fill="none" stroke="black" points="880.5,-1373 880.5,-1273 "/>
<path fill="none" stroke="black" d="M880.5,-1273C880.5,-1267 886.5,-1261 892.5,-1261"/>
<text text-anchor="middle" x="963" y="-1368.4" font-family="Times Roman,serif" font-size="14.00">Role</text>
<polyline fill="none" stroke="black" points="880.5,-1359 1045.5,-1359 "/>
<text text-anchor="start" x="888.5" y="-1342.4" font-family="Times Roman,serif" font-size="14.00">name :string</text>
<text text-anchor="start" x="888.5" y="-1324.4" font-family="Times Roman,serif" font-size="14.00">description :string</text>
<text text-anchor="start" x="888.5" y="-1306.4" font-family="Times Roman,serif" font-size="14.00">enabled :boolean</text>
<text text-anchor="start" x="888.5" y="-1288.4" font-family="Times Roman,serif" font-size="14.00">created_at :datetime</text>
<text text-anchor="start" x="888.5" y="-1270.4" font-family="Times Roman,serif" font-size="14.00">updated_at :datetime</text>
</g>
<!-- Permission&#45;&gt;Role -->
<g id="edge8" class="edge"><title>Permission&#45;&gt;Role</title>
<path fill="none" stroke="black" d="M976.168,-1520.51C973.587,-1481.81 970.421,-1434.31 967.84,-1395.59"/>
<polygon fill="black" stroke="black" points="976.183,-1520.74 972.358,-1531.02 976.515,-1525.73 976.848,-1530.72 976.848,-1530.72 976.848,-1530.72 976.515,-1525.73 981.338,-1530.42 976.183,-1520.74 976.183,-1520.74"/>
<polygon fill="black" stroke="black" points="967.828,-1395.41 971.652,-1385.14 967.495,-1390.43 967.162,-1385.44 967.162,-1385.44 967.162,-1385.44 967.495,-1390.43 962.672,-1385.74 967.828,-1395.41 967.828,-1395.41"/>
</g>
<!-- Room -->
<g id="node5" class="node"><title>Room</title>
<polyline fill="none" stroke="black" points="546.5,-1549 687.5,-1549 "/>
<path fill="none" stroke="black" d="M687.5,-1549C693.5,-1549 699.5,-1555 699.5,-1561"/>
<polyline fill="none" stroke="black" points="699.5,-1561 699.5,-1625 "/>
<path fill="none" stroke="black" d="M699.5,-1625C699.5,-1631 693.5,-1637 687.5,-1637"/>
<polyline fill="none" stroke="black" points="687.5,-1637 546.5,-1637 "/>
<path fill="none" stroke="black" d="M546.5,-1637C540.5,-1637 534.5,-1631 534.5,-1625"/>
<polyline fill="none" stroke="black" points="534.5,-1625 534.5,-1561 "/>
<path fill="none" stroke="black" d="M534.5,-1561C534.5,-1555 540.5,-1549 546.5,-1549"/>
<text text-anchor="middle" x="617" y="-1620.4" font-family="Times Roman,serif" font-size="14.00">Room</text>
<polyline fill="none" stroke="black" points="534.5,-1611 699.5,-1611 "/>
<text text-anchor="start" x="542.5" y="-1594.4" font-family="Times Roman,serif" font-size="14.00">name :string</text>
<text text-anchor="start" x="542.5" y="-1576.4" font-family="Times Roman,serif" font-size="14.00">created_at :datetime</text>
<text text-anchor="start" x="542.5" y="-1558.4" font-family="Times Roman,serif" font-size="14.00">updated_at :datetime</text>
</g>
<!-- Room&#45;&gt;Patient -->
<g id="edge10" class="edge"><title>Room&#45;&gt;Patient</title>
<path fill="none" stroke="black" d="M623.794,-1540.59C625.261,-1529.27 626.891,-1516.69 628.607,-1503.46"/>
<ellipse fill="none" stroke="black" cx="623.255" cy="-1544.75" rx="4.00001" ry="4.00001"/>
<polygon fill="black" stroke="black" points="628.649,-1503.13 634.398,-1493.79 629.292,-1498.17 629.935,-1493.21 629.935,-1493.21 629.935,-1493.21 629.292,-1498.17 625.472,-1492.64 628.649,-1503.13 628.649,-1503.13"/>
</g>
<!-- Consultation -->
<g id="node6" class="node"><title>Consultation</title>
<polyline fill="none" stroke="black" points="220,-127 406,-127 "/>
<path fill="none" stroke="black" d="M406,-127C412,-127 418,-133 418,-139"/>
<polyline fill="none" stroke="black" points="418,-139 418,-221 "/>
<path fill="none" stroke="black" d="M418,-221C418,-227 412,-233 406,-233"/>
<polyline fill="none" stroke="black" points="406,-233 220,-233 "/>
<path fill="none" stroke="black" d="M220,-233C214,-233 208,-227 208,-221"/>
<polyline fill="none" stroke="black" points="208,-221 208,-139 "/>
<path fill="none" stroke="black" d="M208,-139C208,-133 214,-127 220,-127"/>
<text text-anchor="middle" x="313" y="-216.4" font-family="Times Roman,serif" font-size="14.00">Consultation</text>
<polyline fill="none" stroke="black" points="208,-207 418,-207 "/>
<text text-anchor="start" x="216" y="-190.4" font-family="Times Roman,serif" font-size="14.00">consultation_date :datetime</text>
<text text-anchor="start" x="216" y="-172.4" font-family="Times Roman,serif" font-size="14.00">created_at :datetime</text>
<text text-anchor="start" x="216" y="-154.4" font-family="Times Roman,serif" font-size="14.00">updated_at :datetime</text>
<text text-anchor="start" x="216" y="-136.4" font-family="Times Roman,serif" font-size="14.00">enabled :boolean</text>
</g>
<!-- DoctorSpecialty -->
<g id="node7" class="node"><title>DoctorSpecialty</title>
<polyline fill="none" stroke="black" points="447.5,-155 548.5,-155 "/>
<path fill="none" stroke="black" d="M548.5,-155C554.5,-155 560.5,-161 560.5,-167"/>
<polyline fill="none" stroke="black" points="560.5,-167 560.5,-193 "/>
<path fill="none" stroke="black" d="M560.5,-193C560.5,-199 554.5,-205 548.5,-205"/>
<polyline fill="none" stroke="black" points="548.5,-205 447.5,-205 "/>
<path fill="none" stroke="black" d="M447.5,-205C441.5,-205 435.5,-199 435.5,-193"/>
<polyline fill="none" stroke="black" points="435.5,-193 435.5,-167 "/>
<path fill="none" stroke="black" d="M435.5,-167C435.5,-161 441.5,-155 447.5,-155"/>
<text text-anchor="middle" x="498" y="-188.4" font-family="Times Roman,serif" font-size="14.00">DoctorSpecialty</text>
<polyline fill="none" stroke="black" points="435.5,-179 560.5,-179 "/>
</g>
<!-- HealthPlan -->
<g id="node8" class="node"><title>HealthPlan</title>
<polyline fill="none" stroke="black" points="279.5,-1540 420.5,-1540 "/>
<path fill="none" stroke="black" d="M420.5,-1540C426.5,-1540 432.5,-1546 432.5,-1552"/>
<polyline fill="none" stroke="black" points="432.5,-1552 432.5,-1634 "/>
<path fill="none" stroke="black" d="M432.5,-1634C432.5,-1640 426.5,-1646 420.5,-1646"/>
<polyline fill="none" stroke="black" points="420.5,-1646 279.5,-1646 "/>
<path fill="none" stroke="black" d="M279.5,-1646C273.5,-1646 267.5,-1640 267.5,-1634"/>
<polyline fill="none" stroke="black" points="267.5,-1634 267.5,-1552 "/>
<path fill="none" stroke="black" d="M267.5,-1552C267.5,-1546 273.5,-1540 279.5,-1540"/>
<text text-anchor="middle" x="350" y="-1629.4" font-family="Times Roman,serif" font-size="14.00">HealthPlan</text>
<polyline fill="none" stroke="black" points="267.5,-1620 432.5,-1620 "/>
<text text-anchor="start" x="275.5" y="-1603.4" font-family="Times Roman,serif" font-size="14.00">name :string</text>
<text text-anchor="start" x="275.5" y="-1585.4" font-family="Times Roman,serif" font-size="14.00">enabled :boolean</text>
<text text-anchor="start" x="275.5" y="-1567.4" font-family="Times Roman,serif" font-size="14.00">created_at :datetime</text>
<text text-anchor="start" x="275.5" y="-1549.4" font-family="Times Roman,serif" font-size="14.00">updated_at :datetime</text>
</g>
<!-- HealthPlan&#45;&gt;Consultation -->
<g id="edge18" class="edge"><title>HealthPlan&#45;&gt;Consultation</title>
<path fill="none" stroke="black" d="M340.342,-1531.93C326.561,-1441.4 301.937,-1266.11 293,-1116 273.982,-796.566 278.233,-715.659 293,-396 295.381,-344.454 300.943,-286.21 305.598,-243.203"/>
<ellipse fill="none" stroke="black" cx="340.954" cy="-1535.94" rx="4.00001" ry="4.00001"/>
<polygon fill="black" stroke="black" points="305.609,-243.106 311.171,-233.655 306.153,-238.135 306.698,-233.165 306.698,-233.165 306.698,-233.165 306.153,-238.135 302.225,-232.675 305.609,-243.106 305.609,-243.106"/>
</g>
<!-- HealthPlan&#45;&gt;Patient -->
<g id="edge16" class="edge"><title>HealthPlan&#45;&gt;Patient</title>
<path fill="none" stroke="black" d="M440.222,-1556.4C472.977,-1540.36 508.824,-1519.36 537,-1494 546.023,-1485.88 554.674,-1476.91 562.893,-1467.45"/>
<ellipse fill="none" stroke="black" cx="436.452" cy="-1558.21" rx="4.00002" ry="4.00002"/>
<polygon fill="black" stroke="black" points="562.932,-1467.41 572.827,-1462.68 566.162,-1463.59 569.391,-1459.77 569.391,-1459.77 569.391,-1459.77 566.162,-1463.59 565.956,-1456.87 562.932,-1467.41 562.932,-1467.41"/>
</g>
<!-- HealthPlan&#45;&gt;Servant -->
<g id="edge14" class="edge"><title>HealthPlan&#45;&gt;Servant</title>
<path fill="none" stroke="black" d="M374.567,-1530.41C408.943,-1440.26 470.889,-1267.97 504,-1116 534.864,-974.336 497.995,-930.148 542,-792 549.935,-767.089 560.817,-741.747 572.785,-717.604"/>
<polygon fill="black" stroke="black" points="374.497,-1530.59 366.72,-1538.32 372.71,-1535.26 370.922,-1539.93 370.922,-1539.93 370.922,-1539.93 372.71,-1535.26 375.125,-1541.54 374.497,-1530.59 374.497,-1530.59"/>
<polygon fill="black" stroke="black" points="572.917,-717.341 581.439,-710.439 575.169,-712.877 577.421,-708.413 577.421,-708.413 577.421,-708.413 575.169,-712.877 573.403,-706.386 572.917,-717.341 572.917,-717.341"/>
</g>
<!-- DoctorHealthPlan -->
<g id="node17" class="node"><title>DoctorHealthPlan</title>
<polyline fill="none" stroke="black" points="37.5,-145 178.5,-145 "/>
<path fill="none" stroke="black" d="M178.5,-145C184.5,-145 190.5,-151 190.5,-157"/>
<polyline fill="none" stroke="black" points="190.5,-157 190.5,-203 "/>
<path fill="none" stroke="black" d="M190.5,-203C190.5,-209 184.5,-215 178.5,-215"/>
<polyline fill="none" stroke="black" points="178.5,-215 37.5,-215 "/>
<path fill="none" stroke="black" d="M37.5,-215C31.5,-215 25.5,-209 25.5,-203"/>
<polyline fill="none" stroke="black" points="25.5,-203 25.5,-157 "/>
<path fill="none" stroke="black" d="M25.5,-157C25.5,-151 31.5,-145 37.5,-145"/>
<text text-anchor="middle" x="108" y="-198.4" font-family="Times Roman,serif" font-size="14.00">DoctorHealthPlan</text>
<polyline fill="none" stroke="black" points="25.5,-189 190.5,-189 "/>
<text text-anchor="start" x="33.5" y="-172.4" font-family="Times Roman,serif" font-size="14.00">created_at :datetime</text>
<text text-anchor="start" x="33.5" y="-154.4" font-family="Times Roman,serif" font-size="14.00">updated_at :datetime</text>
</g>
<!-- HealthPlan&#45;&gt;DoctorHealthPlan -->
<g id="edge12" class="edge"><title>HealthPlan&#45;&gt;DoctorHealthPlan</title>
<path fill="none" stroke="black" d="M309.706,-1532.69C302.876,-1520.31 296.538,-1507.05 292,-1494 126.613,-1018.21 109.516,-396.509 108.046,-225.318"/>
<ellipse fill="none" stroke="black" cx="311.803" cy="-1536.39" rx="4.00002" ry="4.00002"/>
<polygon fill="black" stroke="black" points="108.045,-225.163 112.473,-215.131 108.009,-220.163 107.973,-215.163 107.973,-215.163 107.973,-215.163 108.009,-220.163 103.474,-215.196 108.045,-225.163 108.045,-225.163"/>
</g>
<!-- User -->
<g id="node16" class="node"><title>User</title>
<polyline fill="none" stroke="black" points="562.5,-793 777.5,-793 "/>
<path fill="none" stroke="black" d="M777.5,-793C783.5,-793 789.5,-799 789.5,-805"/>
<polyline fill="none" stroke="black" points="789.5,-805 789.5,-1103 "/>
<path fill="none" stroke="black" d="M789.5,-1103C789.5,-1109 783.5,-1115 777.5,-1115"/>
<polyline fill="none" stroke="black" points="777.5,-1115 562.5,-1115 "/>
<path fill="none" stroke="black" d="M562.5,-1115C556.5,-1115 550.5,-1109 550.5,-1103"/>
<polyline fill="none" stroke="black" points="550.5,-1103 550.5,-805 "/>
<path fill="none" stroke="black" d="M550.5,-805C550.5,-799 556.5,-793 562.5,-793"/>
<text text-anchor="middle" x="670" y="-1098.4" font-family="Times Roman,serif" font-size="14.00">User</text>
<polyline fill="none" stroke="black" points="550.5,-1089 789.5,-1089 "/>
<text text-anchor="start" x="558.5" y="-1072.4" font-family="Times Roman,serif" font-size="14.00">name :string</text>
<text text-anchor="start" x="558.5" y="-1054.4" font-family="Times Roman,serif" font-size="14.00">login :string</text>
<text text-anchor="start" x="558.5" y="-1036.4" font-family="Times Roman,serif" font-size="14.00">email :string</text>
<text text-anchor="start" x="558.5" y="-1018.4" font-family="Times Roman,serif" font-size="14.00">encrypted_password :string</text>
<text text-anchor="start" x="558.5" y="-1000.4" font-family="Times Roman,serif" font-size="14.00">password_salt :string</text>
<text text-anchor="start" x="558.5" y="-982.4" font-family="Times Roman,serif" font-size="14.00">reset_password_token :string</text>
<text text-anchor="start" x="558.5" y="-964.4" font-family="Times Roman,serif" font-size="14.00">remember_token :string</text>
<text text-anchor="start" x="558.5" y="-946.4" font-family="Times Roman,serif" font-size="14.00">remember_created_at :datetime</text>
<text text-anchor="start" x="558.5" y="-928.4" font-family="Times Roman,serif" font-size="14.00">current_sign_in_at :datetime</text>
<text text-anchor="start" x="558.5" y="-910.4" font-family="Times Roman,serif" font-size="14.00">last_sign_in_at :datetime</text>
<text text-anchor="start" x="558.5" y="-892.4" font-family="Times Roman,serif" font-size="14.00">current_sign_in_ip :string</text>
<text text-anchor="start" x="558.5" y="-874.4" font-family="Times Roman,serif" font-size="14.00">last_sign_in_ip :string</text>
<text text-anchor="start" x="558.5" y="-856.4" font-family="Times Roman,serif" font-size="14.00">enabled :boolean</text>
<text text-anchor="start" x="558.5" y="-838.4" font-family="Times Roman,serif" font-size="14.00">can_login :boolean</text>
<text text-anchor="start" x="558.5" y="-820.4" font-family="Times Roman,serif" font-size="14.00">created_at :datetime</text>
<text text-anchor="start" x="558.5" y="-802.4" font-family="Times Roman,serif" font-size="14.00">updated_at :datetime</text>
</g>
<!-- Role&#45;&gt;User -->
<g id="edge20" class="edge"><title>Role&#45;&gt;User</title>
<path fill="none" stroke="black" d="M907.331,-1252.89C875.766,-1213.14 834.91,-1161.69 796.018,-1112.71"/>
<polygon fill="black" stroke="black" points="907.409,-1252.99 910.104,-1263.62 910.519,-1256.91 913.628,-1260.82 913.628,-1260.82 913.628,-1260.82 910.519,-1256.91 917.152,-1258.02 907.409,-1252.99 907.409,-1252.99"/>
<polygon fill="black" stroke="black" points="796.014,-1112.7 793.319,-1102.07 792.904,-1108.78 789.795,-1104.87 789.795,-1104.87 789.795,-1104.87 792.904,-1108.78 786.271,-1107.67 796.014,-1112.7 796.014,-1112.7"/>
</g>
<!-- Specialty -->
<g id="node10" class="node"><title>Specialty</title>
<polyline fill="none" stroke="black" points="342.5,-910 483.5,-910 "/>
<path fill="none" stroke="black" d="M483.5,-910C489.5,-910 495.5,-916 495.5,-922"/>
<polyline fill="none" stroke="black" points="495.5,-922 495.5,-986 "/>
<path fill="none" stroke="black" d="M495.5,-986C495.5,-992 489.5,-998 483.5,-998"/>
<polyline fill="none" stroke="black" points="483.5,-998 342.5,-998 "/>
<path fill="none" stroke="black" d="M342.5,-998C336.5,-998 330.5,-992 330.5,-986"/>
<polyline fill="none" stroke="black" points="330.5,-986 330.5,-922 "/>
<path fill="none" stroke="black" d="M330.5,-922C330.5,-916 336.5,-910 342.5,-910"/>
<text text-anchor="middle" x="413" y="-981.4" font-family="Times Roman,serif" font-size="14.00">Specialty</text>
<polyline fill="none" stroke="black" points="330.5,-972 495.5,-972 "/>
<text text-anchor="start" x="338.5" y="-955.4" font-family="Times Roman,serif" font-size="14.00">name :string</text>
<text text-anchor="start" x="338.5" y="-937.4" font-family="Times Roman,serif" font-size="14.00">created_at :datetime</text>
<text text-anchor="start" x="338.5" y="-919.4" font-family="Times Roman,serif" font-size="14.00">updated_at :datetime</text>
</g>
<!-- Specialty&#45;&gt;Consultation -->
<g id="edge26" class="edge"><title>Specialty&#45;&gt;Consultation</title>
<path fill="none" stroke="black" d="M406.252,-901.771C388.49,-764.29 340.483,-392.717 321.191,-243.396"/>
<ellipse fill="none" stroke="black" cx="406.788" cy="-905.921" rx="4.00001" ry="4.00001"/>
<polygon fill="black" stroke="black" points="321.133,-242.952 324.315,-232.458 320.493,-237.994 319.852,-233.035 319.852,-233.035 319.852,-233.035 320.493,-237.994 315.389,-233.611 321.133,-242.952 321.133,-242.952"/>
</g>
<!-- Specialty&#45;&gt;DoctorSpecialty -->
<g id="edge22" class="edge"><title>Specialty&#45;&gt;DoctorSpecialty</title>
<path fill="none" stroke="black" d="M418.755,-901.591C434.946,-754.164 480.586,-338.568 494.151,-215.045"/>
<ellipse fill="none" stroke="black" cx="418.281" cy="-905.912" rx="4" ry="4"/>
<polygon fill="black" stroke="black" points="494.162,-214.943 499.727,-205.494 494.708,-209.973 495.254,-205.003 495.254,-205.003 495.254,-205.003 494.708,-209.973 490.781,-204.512 494.162,-214.943 494.162,-214.943"/>
</g>
<!-- Specialty&#45;&gt;Servant -->
<g id="edge24" class="edge"><title>Specialty&#45;&gt;Servant</title>
<path fill="none" stroke="black" d="M443.034,-901.047C461.484,-869.101 485.93,-827.793 509,-792 528.656,-761.504 550.622,-729.177 571.582,-699.079"/>
<polygon fill="black" stroke="black" points="442.986,-901.13 434.096,-907.55 440.49,-905.463 437.995,-909.796 437.995,-909.796 437.995,-909.796 440.49,-905.463 441.895,-912.042 442.986,-901.13 442.986,-901.13"/>
<polygon fill="black" stroke="black" points="571.74,-698.852 581.154,-693.227 574.602,-694.752 577.464,-690.652 577.464,-690.652 577.464,-690.652 574.602,-694.752 573.774,-688.076 571.74,-698.852 571.74,-698.852"/>
</g>
<!-- Administrative -->
<g id="node11" class="node"><title>Administrative</title>
<polyline fill="none" stroke="black" points="589.5,-1 730.5,-1 "/>
<path fill="none" stroke="black" d="M730.5,-1C736.5,-1 742.5,-7 742.5,-13"/>
<polyline fill="none" stroke="black" points="742.5,-13 742.5,-347 "/>
<path fill="none" stroke="black" d="M742.5,-347C742.5,-353 736.5,-359 730.5,-359"/>
<polyline fill="none" stroke="black" points="730.5,-359 589.5,-359 "/>
<path fill="none" stroke="black" d="M589.5,-359C583.5,-359 577.5,-353 577.5,-347"/>
<polyline fill="none" stroke="black" points="577.5,-347 577.5,-13 "/>
<path fill="none" stroke="black" d="M577.5,-13C577.5,-7 583.5,-1 589.5,-1"/>
<text text-anchor="middle" x="660" y="-342.4" font-family="Times Roman,serif" font-size="14.00">Administrative</text>
<polyline fill="none" stroke="black" points="577.5,-333 742.5,-333 "/>
<text text-anchor="start" x="585.5" y="-316.4" font-family="Times Roman,serif" font-size="14.00">name :string</text>
<text text-anchor="start" x="585.5" y="-298.4" font-family="Times Roman,serif" font-size="14.00">birth :date</text>
<text text-anchor="start" x="585.5" y="-280.4" font-family="Times Roman,serif" font-size="14.00">sex :string</text>
<text text-anchor="start" x="585.5" y="-262.4" font-family="Times Roman,serif" font-size="14.00">cpf :string</text>
<text text-anchor="start" x="585.5" y="-244.4" font-family="Times Roman,serif" font-size="14.00">email :string</text>
<text text-anchor="start" x="585.5" y="-226.4" font-family="Times Roman,serif" font-size="14.00">address :string</text>
<text text-anchor="start" x="585.5" y="-208.4" font-family="Times Roman,serif" font-size="14.00">number :string</text>
<text text-anchor="start" x="585.5" y="-190.4" font-family="Times Roman,serif" font-size="14.00">complement :string</text>
<text text-anchor="start" x="585.5" y="-172.4" font-family="Times Roman,serif" font-size="14.00">zip_code :string</text>
<text text-anchor="start" x="585.5" y="-154.4" font-family="Times Roman,serif" font-size="14.00">district :string</text>
<text text-anchor="start" x="585.5" y="-136.4" font-family="Times Roman,serif" font-size="14.00">city :string</text>
<text text-anchor="start" x="585.5" y="-118.4" font-family="Times Roman,serif" font-size="14.00">area_code :string</text>
<text text-anchor="start" x="585.5" y="-100.4" font-family="Times Roman,serif" font-size="14.00">telephone :string</text>
<text text-anchor="start" x="585.5" y="-82.4" font-family="Times Roman,serif" font-size="14.00">mobile :string</text>
<text text-anchor="start" x="585.5" y="-64.4" font-family="Times Roman,serif" font-size="14.00">enabled :boolean</text>
<text text-anchor="start" x="585.5" y="-46.4" font-family="Times Roman,serif" font-size="14.00">created_at :datetime</text>
<text text-anchor="start" x="585.5" y="-28.4" font-family="Times Roman,serif" font-size="14.00">updated_at :datetime</text>
<text text-anchor="start" x="585.5" y="-10.4" font-family="Times Roman,serif" font-size="14.00">crm :string</text>
</g>
<!-- Patient&#45;&gt;Consultation -->
<g id="edge34" class="edge"><title>Patient&#45;&gt;Consultation</title>
<path fill="none" stroke="black" d="M561.592,-1294.2C482.673,-1263.72 373.022,-1207.2 322,-1116 279.712,-1040.41 301.614,-441.618 310.123,-243.442"/>
<ellipse fill="none" stroke="black" cx="565.392" cy="-1295.64" rx="4.00001" ry="4.00001"/>
<polygon fill="black" stroke="black" points="310.134,-243.185 315.062,-233.389 310.35,-238.189 310.566,-233.194 310.566,-233.194 310.566,-233.194 310.35,-238.189 306.07,-233 310.134,-243.185 310.134,-243.185"/>
</g>
<!-- Patient&#45;&gt;User -->
<g id="edge32" class="edge"><title>Patient&#45;&gt;User</title>
<path fill="none" stroke="black" d="M653.958,-1144.55C654.295,-1137.48 654.647,-1130.4 655.01,-1123.34"/>
<ellipse fill="none" stroke="black" cx="653.758" cy="-1148.82" rx="4" ry="4"/>
<ellipse fill="black" stroke="black" cx="655.233" cy="-1119.07" rx="4" ry="4"/>
</g>
<!-- Servant&#45;&gt;Consultation -->
<g id="edge40" class="edge"><title>Servant&#45;&gt;Consultation</title>
<path fill="none" stroke="black" d="M571.252,-503.422C525.423,-463.636 470.214,-411.945 427,-360 396.577,-323.43 367.951,-278.178 346.995,-242.196"/>
<ellipse fill="none" stroke="black" cx="574.34" cy="-506.092" rx="4.00002" ry="4.00002"/>
<polygon fill="black" stroke="black" points="346.835,-241.919 345.733,-231.008 344.335,-237.588 341.836,-233.258 341.836,-233.258 341.836,-233.258 344.335,-237.588 337.938,-235.508 346.835,-241.919 346.835,-241.919"/>
</g>
<!-- Servant&#45;&gt;DoctorSpecialty -->
<g id="edge36" class="edge"><title>Servant&#45;&gt;DoctorSpecialty</title>
<path fill="none" stroke="black" d="M581.059,-389.371C576.959,-379.445 572.918,-369.608 569,-360 548.477,-309.674 525.536,-251.065 511.431,-214.743"/>
<ellipse fill="none" stroke="black" cx="582.675" cy="-393.279" rx="4.00001" ry="4.00001"/>
<polygon fill="black" stroke="black" points="511.313,-214.439 511.892,-203.488 509.505,-209.777 507.696,-205.115 507.696,-205.115 507.696,-205.115 509.505,-209.777 503.501,-206.743 511.313,-214.439 511.313,-214.439"/>
</g>
<!-- Servant&#45;&gt;Administrative -->
<g id="edge28" class="edge"><title>Servant&#45;&gt;Administrative</title>
<path fill="none" stroke="black" d="M660,-396.827C660,-384.334 660,-371.74 660,-359.247"/>
</g>
<!-- Servant&#45;&gt;Nurse -->
<g id="edge30" class="edge"><title>Servant&#45;&gt;Nurse</title>
<path fill="none" stroke="black" d="M742.524,-524.776C801.21,-485.245 878.911,-426.24 933,-360 935.879,-356.474 938.701,-352.842 941.463,-349.124"/>
</g>
<!-- Doctor -->
<g id="node15" class="node"><title>Doctor</title>
<polyline fill="none" stroke="black" points="771.5,-1 912.5,-1 "/>
<path fill="none" stroke="black" d="M912.5,-1C918.5,-1 924.5,-7 924.5,-13"/>
<polyline fill="none" stroke="black" points="924.5,-13 924.5,-347 "/>
<path fill="none" stroke="black" d="M924.5,-347C924.5,-353 918.5,-359 912.5,-359"/>
<polyline fill="none" stroke="black" points="912.5,-359 771.5,-359 "/>
<path fill="none" stroke="black" d="M771.5,-359C765.5,-359 759.5,-353 759.5,-347"/>
<polyline fill="none" stroke="black" points="759.5,-347 759.5,-13 "/>
<path fill="none" stroke="black" d="M759.5,-13C759.5,-7 765.5,-1 771.5,-1"/>
<text text-anchor="middle" x="842" y="-342.4" font-family="Times Roman,serif" font-size="14.00">Doctor</text>
<polyline fill="none" stroke="black" points="759.5,-333 924.5,-333 "/>
<text text-anchor="start" x="767.5" y="-316.4" font-family="Times Roman,serif" font-size="14.00">name :string</text>
<text text-anchor="start" x="767.5" y="-298.4" font-family="Times Roman,serif" font-size="14.00">birth :date</text>
<text text-anchor="start" x="767.5" y="-280.4" font-family="Times Roman,serif" font-size="14.00">sex :string</text>
<text text-anchor="start" x="767.5" y="-262.4" font-family="Times Roman,serif" font-size="14.00">cpf :string</text>
<text text-anchor="start" x="767.5" y="-244.4" font-family="Times Roman,serif" font-size="14.00">email :string</text>
<text text-anchor="start" x="767.5" y="-226.4" font-family="Times Roman,serif" font-size="14.00">address :string</text>
<text text-anchor="start" x="767.5" y="-208.4" font-family="Times Roman,serif" font-size="14.00">number :string</text>
<text text-anchor="start" x="767.5" y="-190.4" font-family="Times Roman,serif" font-size="14.00">complement :string</text>
<text text-anchor="start" x="767.5" y="-172.4" font-family="Times Roman,serif" font-size="14.00">zip_code :string</text>
<text text-anchor="start" x="767.5" y="-154.4" font-family="Times Roman,serif" font-size="14.00">district :string</text>
<text text-anchor="start" x="767.5" y="-136.4" font-family="Times Roman,serif" font-size="14.00">city :string</text>
<text text-anchor="start" x="767.5" y="-118.4" font-family="Times Roman,serif" font-size="14.00">area_code :string</text>
<text text-anchor="start" x="767.5" y="-100.4" font-family="Times Roman,serif" font-size="14.00">telephone :string</text>
<text text-anchor="start" x="767.5" y="-82.4" font-family="Times Roman,serif" font-size="14.00">mobile :string</text>
<text text-anchor="start" x="767.5" y="-64.4" font-family="Times Roman,serif" font-size="14.00">enabled :boolean</text>
<text text-anchor="start" x="767.5" y="-46.4" font-family="Times Roman,serif" font-size="14.00">created_at :datetime</text>
<text text-anchor="start" x="767.5" y="-28.4" font-family="Times Roman,serif" font-size="14.00">updated_at :datetime</text>
<text text-anchor="start" x="767.5" y="-10.4" font-family="Times Roman,serif" font-size="14.00">crm :string</text>
</g>
<!-- Servant&#45;&gt;Doctor -->
<g id="edge44" class="edge"><title>Servant&#45;&gt;Doctor</title>
<path fill="none" stroke="black" d="M742.347,-396.827C748.089,-384.334 753.877,-371.74 759.619,-359.247"/>
</g>
<!-- Servant&#45;&gt;User -->
<g id="edge42" class="edge"><title>Servant&#45;&gt;User</title>
<path fill="none" stroke="black" d="M671.711,-763.534C671.9,-770.593 672.076,-777.655 672.238,-784.68"/>
<ellipse fill="none" stroke="black" cx="671.594" cy="-759.249" rx="4" ry="4"/>
<ellipse fill="black" stroke="black" cx="672.332" cy="-788.873" rx="4" ry="4"/>
</g>
<!-- Servant&#45;&gt;DoctorHealthPlan -->
<g id="edge38" class="edge"><title>Servant&#45;&gt;DoctorHealthPlan</title>
<path fill="none" stroke="black" d="M569.37,-552.923C468.156,-523.148 304.703,-462.587 199,-360 160.199,-322.342 135.098,-264.625 121.286,-224.748"/>
<ellipse fill="none" stroke="black" cx="573.311" cy="-554.07" rx="4.00001" ry="4.00001"/>
<polygon fill="black" stroke="black" points="121.202,-224.496 122.282,-213.583 119.609,-219.756 118.017,-215.017 118.017,-215.017 118.017,-215.017 119.609,-219.756 113.751,-216.45 121.202,-224.496 121.202,-224.496"/>
</g>
<!-- User&#45;&gt;Patient -->
<g id="edge48" class="edge"><title>User&#45;&gt;Patient</title>
<path fill="none" stroke="black" d="M668.469,-1123.34C668.144,-1130.4 667.804,-1137.48 667.451,-1144.55"/>
<ellipse fill="none" stroke="black" cx="668.663" cy="-1119.07" rx="4" ry="4"/>
<ellipse fill="black" stroke="black" cx="667.236" cy="-1148.82" rx="4" ry="4"/>
</g>
<!-- User&#45;&gt;Servant -->
<g id="edge46" class="edge"><title>User&#45;&gt;Servant</title>
<path fill="none" stroke="black" d="M658.803,-784.68C658.594,-777.655 658.396,-770.593 658.211,-763.534"/>
<ellipse fill="none" stroke="black" cx="658.931" cy="-788.874" rx="4" ry="4"/>
<ellipse fill="black" stroke="black" cx="658.102" cy="-759.249" rx="4" ry="4"/>
</g>
</g>
</svg>
